<svg width="23" height="23" viewBox="0 0 23 23" fill="none" xmlns="http://www.w3.org/2000/svg">
<g clip-path="url(#clip0_581_19754)">
<path d="M5.75001 12.4583H1.91668C1.66252 12.4583 1.41876 12.5593 1.23904 12.739C1.05932 12.9187 0.958349 13.1625 0.958349 13.4166V21.0833C0.958349 21.3374 1.05932 21.5812 1.23904 21.7609C1.41876 21.9406 1.66252 22.0416 1.91668 22.0416H5.75001C6.00417 22.0416 6.24793 21.9406 6.42765 21.7609C6.60737 21.5812 6.70834 21.3374 6.70834 21.0833V13.4166C6.70834 13.1625 6.60737 12.9187 6.42765 12.739C6.24793 12.5593 6.00417 12.4583 5.75001 12.4583ZM4.79168 20.1249H2.87501V14.375H4.79168V20.1249ZM21.0833 8.62497H17.25C16.9958 8.62497 16.7521 8.72594 16.5723 8.90566C16.3926 9.08538 16.2917 9.32914 16.2917 9.5833V21.0833C16.2917 21.3374 16.3926 21.5812 16.5723 21.7609C16.7521 21.9406 16.9958 22.0416 17.25 22.0416H21.0833C21.3375 22.0416 21.5812 21.9406 21.761 21.7609C21.9407 21.5812 22.0416 21.3374 22.0416 21.0833V9.5833C22.0416 9.32914 21.9407 9.08538 21.761 8.90566C21.5812 8.72594 21.3375 8.62497 21.0833 8.62497ZM20.125 20.1249H18.2083V10.5416H20.125V20.1249ZM13.4167 0.958318H9.58333C9.32917 0.958318 9.08541 1.05928 8.90569 1.23901C8.72597 1.41873 8.625 1.66248 8.625 1.91665V21.0833C8.625 21.3374 8.72597 21.5812 8.90569 21.7609C9.08541 21.9406 9.32917 22.0416 9.58333 22.0416H13.4167C13.6708 22.0416 13.9146 21.9406 14.0943 21.7609C14.274 21.5812 14.375 21.3374 14.375 21.0833V1.91665C14.375 1.66248 14.274 1.41873 14.0943 1.23901C13.9146 1.05928 13.6708 0.958318 13.4167 0.958318ZM12.4583 20.1249H10.5417V2.87498H12.4583V20.1249Z" fill="#7B78AA"/>
</g>
<defs>
<clipPath id="clip0_581_19754">
<rect width="22.3385" height="22.3385" fill="white" transform="scale(1.02961)"/>
</clipPath>
</defs>
</svg>
