<svg width="23" height="23" viewBox="0 0 23 23" fill="none" xmlns="http://www.w3.org/2000/svg">
<path d="M6.70836 14.375H9.58335C9.83752 14.375 10.0813 14.274 10.261 14.0943C10.4407 13.9146 10.5417 13.6708 10.5417 13.4166C10.5417 13.1625 10.4407 12.9187 10.261 12.739C10.0813 12.5593 9.83752 12.4583 9.58335 12.4583H6.70836C6.45419 12.4583 6.21044 12.5593 6.03071 12.739C5.85099 12.9187 5.75002 13.1625 5.75002 13.4166C5.75002 13.6708 5.85099 13.9146 6.03071 14.0943C6.21044 14.274 6.45419 14.375 6.70836 14.375ZM18.2083 4.79165H4.79169C4.0292 4.79165 3.29793 5.09455 2.75876 5.63372C2.2196 6.17288 1.9167 6.90415 1.9167 7.66665V16.2916C1.9167 17.0541 2.2196 17.7854 2.75876 18.3246C3.29793 18.8637 4.0292 19.1666 4.79169 19.1666H18.2083C18.9708 19.1666 19.7021 18.8637 20.2413 18.3246C20.7804 17.7854 21.0833 17.0541 21.0833 16.2916V7.66665C21.0833 6.90415 20.7804 6.17288 20.2413 5.63372C19.7021 5.09455 18.9708 4.79165 18.2083 4.79165ZM19.1667 16.2916C19.1667 16.5458 19.0657 16.7896 18.886 16.9693C18.7063 17.149 18.4625 17.25 18.2083 17.25H4.79169C4.53753 17.25 4.29377 17.149 4.11405 16.9693C3.93433 16.7896 3.83336 16.5458 3.83336 16.2916V10.5416H19.1667V16.2916ZM19.1667 8.62498H3.83336V7.66665C3.83336 7.41248 3.93433 7.16873 4.11405 6.989C4.29377 6.80928 4.53753 6.70831 4.79169 6.70831H18.2083C18.4625 6.70831 18.7063 6.80928 18.886 6.989C19.0657 7.16873 19.1667 7.41248 19.1667 7.66665V8.62498Z" fill="#7B78AA"/>
</svg>
