<svg width="28" height="28" viewBox="0 0 28 28" fill="none" xmlns="http://www.w3.org/2000/svg">
<path d="M19.8759 0H8.13805C3.03951 0 0 3.038 0 8.134V19.852C0 24.962 3.03951 28 8.13805 28H19.8619C24.9604 28 28 24.962 28 19.866V8.134C28.014 3.038 24.9744 0 19.8759 0ZM9.10454 6.132C10.5473 6.132 11.7378 7.308 11.7378 8.764C11.7378 10.22 10.5613 11.396 9.10454 11.396C7.64781 11.396 6.47122 10.192 6.47122 8.75C6.47122 7.308 7.66182 6.132 9.10454 6.132ZM14.007 23.912C10.2391 23.912 7.17157 20.846 7.17157 17.08C7.17157 16.1 7.96997 15.288 8.95046 15.288H19.0355C20.016 15.288 20.8144 16.086 20.8144 17.08C20.8424 20.846 17.7749 23.912 14.007 23.912ZM18.9094 11.368C17.4667 11.368 16.2761 10.192 16.2761 8.736C16.2761 7.28 17.4527 6.104 18.9094 6.104C20.3661 6.104 21.5427 7.28 21.5427 8.736C21.5427 10.192 20.3521 11.368 18.9094 11.368Z" fill="white"/>
</svg>
