<svg width="23" height="23" viewBox="0 0 23 23" fill="none" xmlns="http://www.w3.org/2000/svg">
<path d="M15.0553 12.1804C15.9949 11.4412 16.6807 10.4275 17.0173 9.28042C17.3539 8.13332 17.3246 6.90982 16.9335 5.78014C16.5423 4.65046 15.8088 3.67078 14.835 2.97739C13.8611 2.284 12.6954 1.91139 11.4999 1.91139C10.3044 1.91139 9.1387 2.284 8.16486 2.97739C7.19102 3.67078 6.45751 4.65046 6.06638 5.78014C5.67526 6.90982 5.64596 8.13332 5.98258 9.28042C6.31919 10.4275 7.00497 11.4412 7.94451 12.1804C6.33459 12.8254 4.92987 13.8952 3.88012 15.2757C2.83037 16.6563 2.17493 18.2958 1.98369 20.0195C1.96984 20.1454 1.98092 20.2727 2.01629 20.3943C2.05167 20.5159 2.11063 20.6293 2.18984 20.7281C2.34979 20.9275 2.58244 21.0553 2.8366 21.0833C3.09077 21.1112 3.34563 21.0371 3.54512 20.8771C3.74461 20.7172 3.87239 20.4845 3.90035 20.2304C4.11079 18.357 5.00405 16.6269 6.40947 15.3705C7.8149 14.1141 9.63395 13.4195 11.5191 13.4195C13.4042 13.4195 15.2233 14.1141 16.6287 15.3705C18.0341 16.6269 18.9274 18.357 19.1378 20.2304C19.1639 20.4659 19.2762 20.6833 19.4532 20.8408C19.6302 20.9984 19.8592 21.0847 20.0962 21.0833H20.2016C20.4528 21.0544 20.6824 20.9274 20.8404 20.7299C20.9983 20.5324 21.0718 20.2806 21.0449 20.0291C20.8527 18.3005 20.1938 16.6567 19.1386 15.2741C18.0835 13.8914 16.672 12.822 15.0553 12.1804ZM11.4999 11.5C10.7418 11.5 10.0006 11.2751 9.37024 10.8539C8.73985 10.4327 8.24852 9.83404 7.95839 9.1336C7.66825 8.43315 7.59234 7.66239 7.74025 6.9188C7.88816 6.17521 8.25325 5.49217 8.78935 4.95607C9.32545 4.41997 10.0085 4.05488 10.7521 3.90697C11.4957 3.75906 12.2664 3.83498 12.9669 4.12511C13.6673 4.41525 14.266 4.90657 14.6872 5.53696C15.1084 6.16735 15.3332 6.90848 15.3332 7.66664C15.3332 8.68331 14.9294 9.65833 14.2105 10.3772C13.4916 11.0961 12.5166 11.5 11.4999 11.5Z" fill="#7B78AA"/>
</svg>
