<svg width="25" height="30" viewBox="0 0 25 30" fill="none" xmlns="http://www.w3.org/2000/svg">
<path d="M24.476 23.1297C24.0272 24.1666 23.496 25.121 22.8802 25.9987C22.0413 27.195 21.3542 28.023 20.8248 28.483C20.004 29.2377 19.1246 29.6242 18.183 29.6462C17.507 29.6462 16.6917 29.454 15.7427 29.0637C14.7906 28.6752 13.9156 28.483 13.1156 28.483C12.2765 28.483 11.3766 28.6752 10.414 29.0637C9.45002 29.454 8.67342 29.6572 8.07965 29.6775C7.17665 29.7157 6.27657 29.3182 5.37812 28.483C4.8047 27.9827 4.08747 27.1252 3.22822 25.9107C2.30635 24.6136 1.54845 23.1095 0.954674 21.3947C0.318775 19.5425 0 17.749 0 16.0126C0 14.0235 0.4298 12.308 1.29067 10.8704C1.96725 9.71567 2.86732 8.80477 3.99385 8.13609C5.12037 7.4674 6.33757 7.12662 7.6484 7.10482C8.36564 7.10482 9.30619 7.3267 10.475 7.76272C11.6406 8.20019 12.389 8.42207 12.7171 8.42207C12.9624 8.42207 13.7938 8.16264 15.2032 7.64547C16.536 7.16585 17.6608 6.96725 18.5824 7.04547C21.0794 7.247 22.9555 8.23135 24.203 10.0048C21.9698 11.3579 20.8651 13.2531 20.8871 15.6844C20.9072 17.5782 21.5942 19.1541 22.9445 20.4054C23.5562 20.9862 24.2397 21.435 25 21.7538C24.8352 22.232 24.661 22.69 24.476 23.1297ZM18.7491 0.593767C18.7491 2.0781 18.2068 3.46402 17.1259 4.74682C15.8215 6.2718 14.2437 7.15302 12.5328 7.01397C12.511 6.8359 12.4983 6.64847 12.4983 6.45152C12.4983 5.02657 13.1187 3.50157 14.2203 2.25469C14.7703 1.62337 15.4697 1.09844 16.318 0.67969C17.1644 0.267187 17.965 0.039065 18.7179 0C18.7399 0.198432 18.7491 0.396877 18.7491 0.593747V0.593767Z" fill="black"/>
</svg>
