<svg width="30" height="30" viewBox="0 0 30 30" fill="none" xmlns="http://www.w3.org/2000/svg">
<g clip-path="url(#clip0_581_19347)">
<path d="M29.9842 15.2806C29.9842 14.0515 29.8821 13.1546 29.6612 12.2245H15.2988V17.772H23.7292C23.5593 19.1506 22.6415 21.2268 20.6018 22.6219L20.5732 22.8076L25.1144 26.2454L25.429 26.2761C28.3184 23.6684 29.9842 19.8316 29.9842 15.2806Z" fill="#4285F4"/>
<path d="M15.2988 29.8969C19.429 29.8969 22.8963 28.5681 25.4289 26.2761L20.6018 22.6219C19.31 23.5022 17.5763 24.1168 15.2988 24.1168C11.2535 24.1168 7.82018 21.5092 6.59629 17.9049L6.41689 17.9198L1.69496 21.4909L1.63321 21.6586C4.14873 26.5417 9.31581 29.8969 15.2988 29.8969Z" fill="#34A853"/>
<path d="M6.5963 17.9049C6.27336 16.9748 6.08647 15.9782 6.08647 14.9485C6.08647 13.9186 6.27336 12.9221 6.57931 11.992L6.57075 11.7939L1.78964 8.16548L1.63321 8.23819C0.596445 10.2646 0.00154519 12.5401 0.00154519 14.9485C0.00154519 17.3568 0.596445 19.6322 1.63321 21.6586L6.5963 17.9049Z" fill="#FBBC05"/>
<path d="M15.2988 5.78C18.1712 5.78 20.1089 6.99248 21.2137 8.00573L25.5309 3.88657C22.8795 1.47821 19.429 -3.09039e-05 15.2988 -3.09039e-05C9.31582 -3.09039e-05 4.14873 3.35504 1.63321 8.23817L6.5793 11.9919C7.82019 8.38771 11.2536 5.78 15.2988 5.78Z" fill="#EB4335"/>
</g>
<defs>
<clipPath id="clip0_581_19347">
<rect width="29.625" height="29.625" fill="white" transform="scale(1.01266)"/>
</clipPath>
</defs>
</svg>
