<svg width="28" height="28" viewBox="0 0 28 28" fill="none" xmlns="http://www.w3.org/2000/svg">
<path d="M19.8759 0H8.13805C3.03951 0 0 3.038 0 8.134V19.852C0 24.962 3.03951 28 8.13805 28H19.8619C24.9604 28 28 24.962 28 19.866V8.134C28.014 3.038 24.9744 0 19.8759 0ZM21.0105 21.35H7.00349C6.4292 21.35 5.95297 20.874 5.95297 20.3C5.95297 19.726 6.4292 19.25 7.00349 19.25H21.0105C21.5848 19.25 22.061 19.726 22.061 20.3C22.061 20.874 21.5848 21.35 21.0105 21.35ZM21.0105 15.05H7.00349C6.4292 15.05 5.95297 14.574 5.95297 14C5.95297 13.426 6.4292 12.95 7.00349 12.95H21.0105C21.5848 12.95 22.061 13.426 22.061 14C22.061 14.574 21.5848 15.05 21.0105 15.05ZM21.0105 8.75H7.00349C6.4292 8.75 5.95297 8.274 5.95297 7.7C5.95297 7.126 6.4292 6.65 7.00349 6.65H21.0105C21.5848 6.65 22.061 7.126 22.061 7.7C22.061 8.274 21.5848 8.75 21.0105 8.75Z" fill="white"/>
</svg>
