<svg width="28" height="28" viewBox="0 0 28 28" fill="none" xmlns="http://www.w3.org/2000/svg">
<path d="M0 0V1.75V7H1.75V1.75H7V0H1.75H0ZM21 0V1.75H26.25V7H28V0H21ZM3.5 3.5V12.25H12.25V3.5H3.5ZM15.75 3.5V12.25H24.5V3.5H15.75ZM5.25 5.25H10.5V10.5H5.25V5.25ZM17.5 5.25H22.75V10.5H17.5V5.25ZM3.5 15.75V24.5H12.25V15.75H3.5ZM15.75 15.75V24.5H24.5V15.75H15.75ZM5.25 17.5H10.5V22.75H5.25V17.5ZM17.5 17.5H22.75V22.75H17.5V17.5ZM0 21V28H1.75H7V26.25H1.75V21H0ZM26.25 21V26.25H21V28H28V26.25V21H26.25Z" fill="white"/>
</svg>
