<svg width="92" height="112" viewBox="0 0 92 112" fill="none" xmlns="http://www.w3.org/2000/svg">
<g filter="url(#filter0_f_581_19740)">
<path d="M53.1895 42.9471L47.5906 38.0388C47.0774 37.5797 46.4129 37.3259 45.7243 37.3259C45.0357 37.3259 44.3713 37.5797 43.858 38.0388L38.2591 42.9471C37.9627 43.2122 37.7262 43.5374 37.5653 43.901C37.4044 44.2647 37.3228 44.6584 37.326 45.056V53.2117C37.326 53.9542 37.6209 54.6662 38.1459 55.1912C38.6709 55.7162 39.383 56.0112 40.1254 56.0112H51.3232C52.0657 56.0112 52.7777 55.7162 53.3027 55.1912C53.8277 54.6662 54.1226 53.9542 54.1226 53.2117V45.0467C54.1245 44.6506 54.0422 44.2587 53.8814 43.8968C53.7205 43.5348 53.4847 43.2112 53.1895 42.9471ZM47.5906 54.1449H43.858V49.4791C43.858 49.2317 43.9563 48.9943 44.1313 48.8193C44.3063 48.6443 44.5437 48.546 44.7912 48.546H46.6575C46.9049 48.546 47.1423 48.6443 47.3173 48.8193C47.4923 48.9943 47.5906 49.2317 47.5906 49.4791V54.1449ZM52.2563 53.2117C52.2563 53.4592 52.158 53.6966 51.983 53.8716C51.808 54.0466 51.5707 54.1449 51.3232 54.1449H49.4569V49.4791C49.4569 48.7367 49.162 48.0246 48.637 47.4996C48.112 46.9746 47.3999 46.6797 46.6575 46.6797H44.7912C44.0487 46.6797 43.3367 46.9746 42.8117 47.4996C42.2867 48.0246 41.9917 48.7367 41.9917 49.4791V54.1449H40.1254C39.8779 54.1449 39.6406 54.0466 39.4656 53.8716C39.2906 53.6966 39.1923 53.4592 39.1923 53.2117V45.0467C39.1924 44.9142 39.2208 44.7833 39.2755 44.6626C39.3302 44.5419 39.41 44.4343 39.5096 44.3468L45.1084 39.4478C45.2787 39.2982 45.4976 39.2157 45.7243 39.2157C45.951 39.2157 46.1699 39.2982 46.3402 39.4478L51.9391 44.3468C52.0386 44.4343 52.1184 44.5419 52.1731 44.6626C52.2278 44.7833 52.2562 44.9142 52.2563 45.0467V53.2117Z" fill="#0DA6C2"/>
</g>
<g filter="url(#filter1_ddi_581_19740)">
<path d="M53.1895 42.9471L47.5906 38.0388C47.0774 37.5797 46.4129 37.3259 45.7243 37.3259C45.0357 37.3259 44.3713 37.5797 43.858 38.0388L38.2591 42.9471C37.9627 43.2122 37.7262 43.5374 37.5653 43.901C37.4044 44.2647 37.3228 44.6584 37.326 45.056V53.2117C37.326 53.9542 37.6209 54.6662 38.1459 55.1912C38.6709 55.7162 39.383 56.0112 40.1254 56.0112H51.3232C52.0657 56.0112 52.7777 55.7162 53.3027 55.1912C53.8277 54.6662 54.1226 53.9542 54.1226 53.2117V45.0467C54.1245 44.6506 54.0422 44.2587 53.8814 43.8968C53.7205 43.5348 53.4847 43.2112 53.1895 42.9471ZM47.5906 54.1449H43.858V49.4791C43.858 49.2317 43.9563 48.9943 44.1313 48.8193C44.3063 48.6443 44.5437 48.546 44.7912 48.546H46.6575C46.9049 48.546 47.1423 48.6443 47.3173 48.8193C47.4923 48.9943 47.5906 49.2317 47.5906 49.4791V54.1449ZM52.2563 53.2117C52.2563 53.4592 52.158 53.6966 51.983 53.8716C51.808 54.0466 51.5707 54.1449 51.3232 54.1449H49.4569V49.4791C49.4569 48.7367 49.162 48.0246 48.637 47.4996C48.112 46.9746 47.3999 46.6797 46.6575 46.6797H44.7912C44.0487 46.6797 43.3367 46.9746 42.8117 47.4996C42.2867 48.0246 41.9917 48.7367 41.9917 49.4791V54.1449H40.1254C39.8779 54.1449 39.6406 54.0466 39.4656 53.8716C39.2906 53.6966 39.1923 53.4592 39.1923 53.2117V45.0467C39.1924 44.9142 39.2208 44.7833 39.2755 44.6626C39.3302 44.5419 39.41 44.4343 39.5096 44.3468L45.1084 39.4478C45.2787 39.2982 45.4976 39.2157 45.7243 39.2157C45.951 39.2157 46.1699 39.2982 46.3402 39.4478L51.9391 44.3468C52.0386 44.4343 52.1184 44.5419 52.1731 44.6626C52.2278 44.7833 52.2562 44.9142 52.2563 45.0467V53.2117Z" fill="#0DA6C2"/>
</g>
<defs>
<filter id="filter0_f_581_19740" x="7.64889e-06" y="7.64889e-06" width="91.4486" height="93.3371" filterUnits="userSpaceOnUse" color-interpolation-filters="sRGB">
<feFlood flood-opacity="0" result="BackgroundImageFix"/>
<feBlend mode="normal" in="SourceGraphic" in2="BackgroundImageFix" result="shape"/>
<feGaussianBlur stdDeviation="18.6154" result="effect1_foregroundBlur_581_19740"/>
</filter>
<filter id="filter1_ddi_581_19740" x="7.64889e-06" y="18.663" width="91.4486" height="93.3371" filterUnits="userSpaceOnUse" color-interpolation-filters="sRGB">
<feFlood flood-opacity="0" result="BackgroundImageFix"/>
<feColorMatrix in="SourceAlpha" type="matrix" values="0 0 0 0 0 0 0 0 0 0 0 0 0 0 0 0 0 0 127 0" result="hardAlpha"/>
<feOffset dy="18.6154"/>
<feGaussianBlur stdDeviation="18.6154"/>
<feComposite in2="hardAlpha" operator="out"/>
<feColorMatrix type="matrix" values="0 0 0 0 0 0 0 0 0 0.843137 0 0 0 0 1 0 0 0 1 0"/>
<feBlend mode="normal" in2="BackgroundImageFix" result="effect1_dropShadow_581_19740"/>
<feColorMatrix in="SourceAlpha" type="matrix" values="0 0 0 0 0 0 0 0 0 0 0 0 0 0 0 0 0 0 127 0" result="hardAlpha"/>
<feOffset dy="11.1692"/>
<feGaussianBlur stdDeviation="9.30769"/>
<feComposite in2="hardAlpha" operator="out"/>
<feColorMatrix type="matrix" values="0 0 0 0 0 0 0 0 0 0.33054 0 0 0 0 0.391667 0 0 0 0.5 0"/>
<feBlend mode="normal" in2="effect1_dropShadow_581_19740" result="effect2_dropShadow_581_19740"/>
<feBlend mode="normal" in="SourceGraphic" in2="effect2_dropShadow_581_19740" result="shape"/>
<feColorMatrix in="SourceAlpha" type="matrix" values="0 0 0 0 0 0 0 0 0 0 0 0 0 0 0 0 0 0 127 0" result="hardAlpha"/>
<feOffset dy="1.86154"/>
<feGaussianBlur stdDeviation="1.86154"/>
<feComposite in2="hardAlpha" operator="arithmetic" k2="-1" k3="1"/>
<feColorMatrix type="matrix" values="0 0 0 0 1 0 0 0 0 1 0 0 0 0 1 0 0 0 0.5 0"/>
<feBlend mode="normal" in2="shape" result="effect3_innerShadow_581_19740"/>
</filter>
</defs>
</svg>
